<?xml version="1.0" encoding="UTF-8" standalone="no"?>
<!DOCTYPE svg PUBLIC "-//W3C//DTD SVG 1.1//EN" "http://www.w3.org/Graphics/SVG/1.1/DTD/svg11.dtd">
<!-- Created with Vectornator (http://vectornator.io/) -->
<svg height="100%" stroke-miterlimit="10" style="fill-rule:nonzero;clip-rule:evenodd;stroke-linecap:round;stroke-linejoin:round;" version="1.1" viewBox="0 0 625 626" width="100%" xml:space="preserve" xmlns="http://www.w3.org/2000/svg" xmlns:vectornator="http://vectornator.io" xmlns:xlink="http://www.w3.org/1999/xlink">
<defs/>
<g id="Untitled" vectornator:layerName="Untitled">
<g opacity="1" vectornator:layerName="g">
<path d="M300.4 1.08761C292.472 3.37774 282.783 13.5953 280.67 21.5226C278.027 30.8593 278.203 217.769 280.67 227.106C284.369 240.847 300.928 251.24 314.493 248.422C323.125 246.66 332.462 239.79 335.633 232.919C338.275 227.458 338.627 216.008 338.627 124.226C338.627 32.4448 338.275 20.9941 335.633 15.5331C330.348 4.0824 313.436-2.788 300.4 1.08761Z" fill="#000000" fill-rule="nonzero" opacity="1" stroke="none" vectornator:layerName="path"/>
<path d="M217.955 99.3871C209.499 103.263 204.038 108.9 200.339 117.532C198.049 123.345 197.696 146.599 197.696 313.25L197.696 502.45L201.748 510.202C204.038 514.429 209.323 520.243 213.375 523.238C220.774 528.346 221.478 528.523 245.437 529.051L269.924 529.756L269.924 506.678C269.924 493.994 270.1 483.072 270.452 482.368C270.628 481.663 267.81 480.43 264.11 479.725C254.069 477.611 247.198 473.559 243.499 467.218C240.152 461.756 239.976 457.352 239.976 313.955C239.976 192.049 240.328 165.449 242.442 160.516C245.437 153.117 254.069 146.951 262.877 145.894L269.924 144.837L269.924 121.584L269.924 98.3301L255.478 97.2731C232.753 95.5115 225.53 95.8638 217.955 99.3871Z" fill="#000000" fill-rule="nonzero" opacity="1" stroke="none" vectornator:layerName="path"/>
<path d="M347.436 125.812L347.436 150.475L359.239 156.112C380.554 166.329 393.767 183.77 401.518 212.308C404.337 222.526 404.689 232.743 404.689 311.841C404.689 390.586 404.337 401.332 401.518 413.488C395 441.321 381.259 459.819 359.415 470.036L347.436 475.673L347.436 500.865L347.436 526.056L354.13 524.823C379.85 520.067 404.337 507.383 420.72 490.471C437.808 472.502 446.616 454.005 453.486 421.943C456.657 406.969 457.186 396.752 457.89 328.048C459.124 222.173 456.481 198.039 439.569 163.158C425.829 134.268 400.813 114.361 366.814 105.024C345.85 99.211 347.436 97.4493 347.436 125.812Z" fill="#000000" fill-rule="nonzero" opacity="1" stroke="none" vectornator:layerName="path"/>
<path d="M297.229 380.369C290.006 383.54 282.783 392.348 280.67 400.451C278.203 409.26 278.203 595.113 280.67 603.921C282.96 612.553 291.416 622.066 299.343 624.708C307.446 627.351 320.13 625.765 326.12 621.537C328.586 619.599 332.462 615.371 334.752 612.2L338.627 606.387L338.627 502.098L338.627 397.809L334.752 391.996C332.462 388.825 328.586 384.597 325.944 382.659C319.954 378.079 304.628 376.845 297.229 380.369Z" fill="#000000" fill-rule="nonzero" opacity="1" stroke="none" vectornator:layerName="path"/>
</g>
</g>
</svg>
